<?xml version="1.0" standalone="no"?><!DOCTYPE svg PUBLIC "-//W3C//DTD SVG 1.1//EN" "http://www.w3.org/Graphics/SVG/1.1/DTD/svg11.dtd"><svg t="1748936456228" class="icon" viewBox="0 0 1024 1024" version="1.1" xmlns="http://www.w3.org/2000/svg" p-id="3595" width="32" height="32" xmlns:xlink="http://www.w3.org/1999/xlink"><path d="M477.433552 733.485133l-179.768616 28.381674s18.826961-46.82792 16.852157-68.12093-196.620772-181.659909-196.620773-181.659909 48.702265-16.456704 50.559908-28.381674S134.748477 341.781185 134.748477 341.781185s108.677127 32.36567 117.973937 28.386587c9.242773-3.959434 22.469542-68.123387 22.469542-68.123387s95.38011 122.582797 112.355078 119.212857c18.387297-3.64995-28.086927-244.103522-28.086927-244.103523s57.254593 38.669571 73.030923 34.062922C448.265886 206.605325 511.140321 63.616215 511.140321 63.616215s64.79029 143.484776 78.648309 147.599443 73.030923-34.062922 73.030924-34.062921-50.777529 226.721804-33.706769 238.430626c21.720393 14.897002 117.972463-113.538978 117.972463-113.538978s7.972905 64.205709 22.471998 68.123387 117.972463-28.386587 117.972464-28.386587-40.763502 133.800374-33.706769 147.599443S904.381866 517.764759 904.381866 517.764759s-201.282686 151.981348-202.238158 181.659909c-0.562475 17.453931 22.469542 62.44214 22.469542 62.442139s-185.074061-29.229072-191.003387-28.381674-17.419544 16.653202-16.852156 22.707796c0.564932 6.049681 8.94557 204.436479 8.94557 204.436479h-38.835366s8.007292-192.904505 7.417798-204.436479c-0.751605-14.72261-5.632123-19.219957-16.852157-22.707796z" fill="#1A1A1A" p-id="3596"></path></svg>